<svg width="100" height="100" viewBox="0 0 100 100" fill="none" xmlns="http://www.w3.org/2000/svg">
<circle cx="50" cy="50" r="50" fill="#0656D7"/>
<mask id="path-2-inside-1_1_19" fill="white">
<path d="M50 25C36.215 25 25 36.215 25 50C25 63.785 36.215 75 50 75C63.785 75 75 63.785 75 50C75 36.215 63.785 25 50 25ZM50 70C38.9725 70 30 61.0275 30 50C30 38.9725 38.9725 30 50 30C61.0275 30 70 38.9725 70 50C70 61.0275 61.0275 70 50 70Z"/>
</mask>
<path d="M50 25C36.215 25 25 36.215 25 50C25 63.785 36.215 75 50 75C63.785 75 75 63.785 75 50C75 36.215 63.785 25 50 25ZM50 70C38.9725 70 30 61.0275 30 50C30 38.9725 38.9725 30 50 30C61.0275 30 70 38.9725 70 50C70 61.0275 61.0275 70 50 70Z" fill="white"/>
<path d="M50 20C33.4536 20 20 33.4536 20 50H30C30 38.9764 38.9764 30 50 30V20ZM20 50C20 66.5464 33.4536 80 50 80V70C38.9764 70 30 61.0236 30 50H20ZM50 80C66.5464 80 80 66.5464 80 50H70C70 61.0236 61.0236 70 50 70V80ZM80 50C80 33.4536 66.5464 20 50 20V30C61.0236 30 70 38.9764 70 50H80ZM50 65C41.7339 65 35 58.2661 35 50H25C25 63.7889 36.2111 75 50 75V65ZM35 50C35 41.7339 41.7339 35 50 35V25C36.2111 25 25 36.2111 25 50H35ZM50 35C58.2661 35 65 41.7339 65 50H75C75 36.2111 63.7889 25 50 25V35ZM65 50C65 58.2661 58.2661 65 50 65V75C63.7889 75 75 63.7889 75 50H65Z" fill="white" mask="url(#path-2-inside-1_1_19)"/>
<path d="M52 48.965V49.1721L52.1464 49.3186L58.5604 55.7325L55.7325 58.5604L48 50.8279V38H52V48.965Z" fill="white" stroke="white"/>
</svg>
