<svg width="100" height="100" viewBox="0 0 100 100" fill="none" xmlns="http://www.w3.org/2000/svg">
<circle cx="50" cy="50" r="50" fill="#023AA9"/>
<path d="M47.6875 67.375C47.6875 67.375 44.875 67.375 44.875 64.5625C44.875 61.75 47.6875 53.3125 58.9375 53.3125C70.1875 53.3125 73 61.75 73 64.5625C73 67.375 70.1875 67.375 70.1875 67.375H47.6875ZM58.9375 50.5C61.1753 50.5 63.3214 49.6111 64.9037 48.0287C66.4861 46.4464 67.375 44.3003 67.375 42.0625C67.375 39.8247 66.4861 37.6786 64.9037 36.0963C63.3214 34.5139 61.1753 33.625 58.9375 33.625C56.6997 33.625 54.5536 34.5139 52.9713 36.0963C51.3889 37.6786 50.5 39.8247 50.5 42.0625C50.5 44.3003 51.3889 46.4464 52.9713 48.0287C54.5536 49.6111 56.6997 50.5 58.9375 50.5V50.5Z" fill="white"/>
<path fill-rule="evenodd" clip-rule="evenodd" d="M42.67 67.375C42.2531 66.497 42.0451 65.5343 42.0625 64.5625C42.0625 60.7516 43.975 56.8281 47.5075 54.1C45.7443 53.5567 43.9074 53.291 42.0625 53.3125C30.8125 53.3125 28 61.75 28 64.5625C28 67.375 30.8125 67.375 30.8125 67.375H42.67Z" fill="white"/>
<path d="M40.6562 50.5C42.5211 50.5 44.3095 49.7592 45.6281 48.4406C46.9467 47.122 47.6875 45.3336 47.6875 43.4688C47.6875 41.6039 46.9467 39.8155 45.6281 38.4969C44.3095 37.1783 42.5211 36.4375 40.6562 36.4375C38.7914 36.4375 37.003 37.1783 35.6844 38.4969C34.3658 39.8155 33.625 41.6039 33.625 43.4688C33.625 45.3336 34.3658 47.122 35.6844 48.4406C37.003 49.7592 38.7914 50.5 40.6562 50.5V50.5Z" fill="white"/>
</svg>
